# xmcd
#
# Track frame offsets: 
#        150
#        17387
#        31218
#        50109
#        66209
#        80926
#        96758
#        110877
#        127988
#        142333
#
# Disc length: 2133 seconds
#
# Revision: 1
# Processed by: cddbd v1.5.2PL0 Copyright (c) Steve Scherf et al.
# Submitted via: ExactAudioCopy v0.95b4
#
DISCID=9108530a
DTITLE=วัฒนา อนันต์ - คุณนายสายทอง
DYEAR=2007
DGENRE=Country
TTITLE0=คุณนายสายทอง
TTITLE1=มอเตอร์ไซค์ใจเดียว
TTITLE2=รอเธอที่โลกวิญญาณ
TTITLE3=ชวนน้องล่องใต้
TTITLE4=รอพี่แค่หวยออก
TTITLE5=ของขวัญคือวันวิวาห์
TTITLE6=ไอ้หนุ่มเมืองเพชร
TTITLE7=เห็นแต่หน้าบ้าน
TTITLE8=ไม่ได้ลองใจ
TTITLE9=วัฒนาวอนแฟน
EXTD=
EXTT0=
EXTT1=
EXTT2=
EXTT3=
EXTT4=
EXTT5=
EXTT6=
EXTT7=
EXTT8=
EXTT9=
PLAYORDER=
